<?xml version="1.0" encoding="UTF-8" standalone="no"?>
<!DOCTYPE svg PUBLIC "-//W3C//DTD SVG 1.1//EN" "http://www.w3.org/Graphics/SVG/1.1/DTD/svg11.dtd">
<svg width="100%" height="100%" viewBox="0 0 695 598" version="1.1" xmlns="http://www.w3.org/2000/svg" xmlns:xlink="http://www.w3.org/1999/xlink" xml:space="preserve" xmlns:serif="http://www.serif.com/" style="fill-rule:evenodd;clip-rule:evenodd;stroke-linejoin:round;stroke-miterlimit:2;">
    <g transform="matrix(1,0,0,1,0,-6965.62)">
        <g id="Artboard3" transform="matrix(0.333354,0,0,0.285753,1188.07,5185.58)">
            <rect x="-3564" y="6229.28" width="2082" height="2092.72" style="fill:none;"/>
            <g transform="matrix(0.00111767,1.61516,-1.55234,0.00147547,-3395.75,4556)">
                <path d="M2242.59,-1009.8L2131.8,-1120.59L2021.01,-1009.8L2076.41,-954.407L2131.8,-899.014L2187.19,-954.407L2242.59,-1009.8ZM2131.8,-896.186L2021.01,-785.4L2076.41,-730.007L2131.8,-674.614L2242.59,-785.4L2131.8,-896.186ZM2131.8,-671.786L2021.01,-561L2131.8,-450.214L2242.59,-561L2131.8,-671.786ZM2131.8,-447.386L2021.01,-336.6L2131.8,-225.814L2242.59,-336.6L2131.8,-447.386ZM2131.8,-222.986L2021.01,-112.2L2131.8,-1.414L2242.59,-112.2L2131.8,-222.986ZM2019.6,-113.614L2130.39,-224.4L2074.99,-279.793L2019.6,-335.185L1908.81,-224.4L2019.6,-113.614ZM2018.18,-112.2L1962.79,-167.593L1907.4,-222.986L1796.61,-112.2L1907.4,-1.414L2018.18,-112.2ZM1795.2,-113.614L1905.99,-224.4L1850.59,-279.793L1795.2,-335.185L1739.81,-279.793L1684.41,-224.4L1795.2,-113.614ZM1793.79,-112.2L1683,-222.986L1572.21,-112.2L1683,-1.414L1793.79,-112.2ZM1570.8,-113.614L1681.59,-224.4L1626.19,-279.793L1570.8,-335.185L1515.41,-279.793L1460.01,-224.4L1515.41,-169.007L1570.8,-113.614ZM1569.39,-112.2L1513.99,-167.593L1458.6,-222.986L1347.81,-112.2L1458.6,-1.414L1569.39,-112.2ZM1346.4,-113.614L1457.19,-224.4L1401.79,-279.793L1346.4,-335.185L1291.01,-279.793L1235.61,-224.4L1291.01,-169.007L1346.4,-113.614ZM1344.99,-112.2L1289.59,-167.593L1234.2,-222.986L1123.41,-112.2L1234.2,-1.414L1344.99,-112.2ZM1234.2,-225.814L1344.99,-336.6L1289.59,-391.993L1234.2,-447.386L1123.41,-336.6L1234.2,-225.814ZM1234.2,-450.214L1344.99,-561L1234.2,-671.786L1123.41,-561L1234.2,-450.214ZM1234.2,-674.614L1344.99,-785.4L1234.2,-896.186L1123.41,-785.4L1234.2,-674.614ZM1234.2,-899.014L1344.99,-1009.8L1289.59,-1065.19L1234.2,-1120.59L1123.41,-1009.8L1234.2,-899.014ZM1346.4,-1008.39L1235.61,-897.6L1346.4,-786.814L1457.19,-897.6L1401.79,-952.993L1346.4,-1008.39ZM1347.81,-1009.8L1458.6,-899.014L1569.39,-1009.8L1458.6,-1120.59L1347.81,-1009.8ZM1570.8,-1008.39L1460.01,-897.6L1570.8,-786.814L1681.59,-897.6L1626.19,-952.993L1570.8,-1008.39ZM1572.21,-1009.8L1683,-899.014L1793.79,-1009.8L1683,-1120.59L1572.21,-1009.8ZM1795.2,-1008.39L1739.81,-952.993L1684.41,-897.6L1795.2,-786.814L1905.99,-897.6L1850.59,-952.993L1795.2,-1008.39ZM1796.61,-1009.8L1852.01,-954.407L1907.4,-899.014L1962.79,-954.407L2018.18,-1009.8L1907.4,-1120.59L1796.61,-1009.8ZM2019.6,-562.414L2130.39,-673.2L2074.99,-728.593L2019.6,-783.986L1908.81,-673.2L1964.21,-617.807L2019.6,-562.414ZM2019.6,-338.014L2130.39,-448.8L2019.6,-559.586L1964.21,-504.193L1908.81,-448.8L2019.6,-338.014ZM1796.61,-336.6L1907.4,-225.814L2018.18,-336.6L1962.79,-391.993L1907.4,-447.386L1796.61,-336.6ZM1795.2,-338.014L1905.99,-448.8L1795.2,-559.586L1684.41,-448.8L1795.2,-338.014ZM1572.21,-336.6L1627.61,-281.207L1683,-225.814L1738.39,-281.207L1793.79,-336.6L1683,-447.386L1572.21,-336.6ZM1570.8,-338.014L1681.59,-448.8L1570.8,-559.586L1460.01,-448.8L1515.41,-393.407L1570.8,-338.014ZM1347.81,-336.6L1403.21,-281.207L1458.6,-225.814L1569.39,-336.6L1513.99,-391.993L1458.6,-447.386L1347.81,-336.6ZM1346.4,-559.586L1235.61,-448.8L1291.01,-393.407L1346.4,-338.014L1457.19,-448.8L1346.4,-559.586ZM1346.4,-783.986L1235.61,-673.2L1346.4,-562.414L1457.19,-673.2L1346.4,-783.986ZM1569.39,-785.4L1458.6,-896.186L1347.81,-785.4L1458.6,-674.614L1569.39,-785.4ZM1569.39,-561L1458.6,-671.786L1347.81,-561L1458.6,-450.214L1569.39,-561ZM1570.8,-783.986L1460.01,-673.2L1570.8,-562.414L1681.59,-673.2L1570.8,-783.986ZM1793.79,-785.4L1683,-896.186L1572.21,-785.4L1683,-674.614L1793.79,-785.4ZM1683,-671.786L1572.21,-561L1683,-450.214L1793.79,-561L1683,-671.786ZM1795.2,-783.986L1684.41,-673.2L1795.2,-562.414L1905.99,-673.2L1850.59,-728.593L1795.2,-783.986ZM1907.4,-671.786L1796.61,-561L1907.4,-450.214L1962.79,-505.607L2018.18,-561L1962.79,-616.393L1907.4,-671.786ZM1907.4,-674.614L1962.79,-730.007L2018.18,-785.4L1962.79,-840.793L1907.4,-896.186L1796.61,-785.4L1852.01,-730.007L1907.4,-674.614ZM2019.6,-1008.39L1964.21,-952.993L1908.81,-897.6L1964.21,-842.207L2019.6,-786.814L2130.39,-897.6L2074.99,-952.993L2019.6,-1008.39ZM2133.21,-1122L2244,-1011.21L2244,-1008.39L2188.61,-952.993L2133.21,-897.6L2244,-786.814L2244,-783.986L2188.61,-728.593L2133.21,-673.2L2244,-562.414L2244,-559.586L2133.21,-448.8L2244,-338.014L2244,-335.185L2188.61,-279.793L2133.21,-224.4L2244,-113.614L2244,-110.786L2133.21,0L2130.39,0L2019.6,-110.786L1964.21,-55.393L1908.81,0L1905.99,0L1795.2,-110.786L1684.41,0L1681.59,0L1570.8,-110.786L1460.01,0L1457.19,0L1346.4,-110.786L1235.61,0L1232.79,0L1122,-110.786L1122,-113.614L1232.79,-224.4L1177.39,-279.793L1122,-335.185L1122,-338.014L1232.79,-448.8L1122,-559.586L1122,-562.414L1232.79,-673.2L1122,-783.986L1122,-786.814L1232.79,-897.6L1177.39,-952.993L1122,-1008.39L1122,-1011.21L1232.79,-1122L1235.61,-1122L1291.01,-1066.61L1346.4,-1011.21L1457.19,-1122L1460.01,-1122L1515.41,-1066.61L1570.8,-1011.21L1681.59,-1122L1684.41,-1122L1795.2,-1011.21L1905.99,-1122L1908.81,-1122L1964.21,-1066.61L2019.6,-1011.21L2130.39,-1122L2133.21,-1122Z" style="fill:rgb(133,133,133);fill-rule:nonzero;"/>
            </g>
        </g>
    </g>
</svg>
