<?xml version="1.0" encoding="UTF-8" standalone="no"?>
<!DOCTYPE svg PUBLIC "-//W3C//DTD SVG 1.1//EN" "http://www.w3.org/Graphics/SVG/1.1/DTD/svg11.dtd">
<svg width="100%" height="100%" viewBox="0 0 1920 1080" version="1.1" xmlns="http://www.w3.org/2000/svg" xmlns:xlink="http://www.w3.org/1999/xlink" xml:space="preserve" xmlns:serif="http://www.serif.com/" style="fill-rule:evenodd;clip-rule:evenodd;stroke-linejoin:round;stroke-miterlimit:2;">
    <g transform="matrix(1,0,0,1,-3922,0)">
        <g id="Artboard4" transform="matrix(1.0233,0,0,1.15261,-132.042,69.1569)">
            <rect x="3961.72" y="-60" width="1876.28" height="937" style="fill:none;"/>
            <clipPath id="_clip1">
                <rect x="3961.72" y="-60" width="1876.28" height="937"/>
            </clipPath>
            <g clip-path="url(#_clip1)">
                <g id="Hero" transform="matrix(-0.977228,0,0,2.63009,5878.41,-30.8903)">
                    <g transform="matrix(0.000769895,0.314603,-0.949319,0.000255142,853.136,-97.145)">
                        <g opacity="0.3">
                            <path d="M785.4,409.986L858.786,336.6L785.4,263.214L712.014,336.6L785.4,409.986ZM861.614,336.6L785.4,412.814L709.185,336.6L785.4,260.386L861.614,336.6Z" style="fill:rgb(253,158,135);fill-rule:nonzero;"/>
                            <path d="M634.386,336.6L561,263.214L487.614,336.6L561,409.986L634.386,336.6ZM561,260.386L637.214,336.6L561,412.814L484.786,336.6L561,260.386Z" style="fill:rgb(253,158,135);fill-rule:nonzero;"/>
                            <path d="M409.986,336.6L336.6,263.214L263.214,336.6L336.6,409.986L409.986,336.6ZM336.6,260.386L412.814,336.6L336.6,412.814L260.385,336.6L336.6,260.386Z" style="fill:rgb(253,158,135);fill-rule:nonzero;"/>
                            <path d="M1083.19,336.6L1009.8,263.214L936.414,336.6L1009.8,409.986L1083.19,336.6ZM1009.8,260.386L1086.01,336.6L1009.8,412.814L933.586,336.6L1009.8,260.386Z" style="fill:rgb(253,158,135);fill-rule:nonzero;"/>
                            <path d="M785.4,487.614L712.014,561L785.4,634.386L858.786,561L785.4,487.614ZM709.185,561L785.4,484.786L861.614,561L785.4,637.214L709.185,561Z" style="fill:rgb(253,158,135);fill-rule:nonzero;"/>
                            <path d="M634.386,561L561,487.614L487.614,561L561,634.386L634.386,561ZM561,484.786L637.214,561L561,637.214L484.786,561L561,484.786Z" style="fill:rgb(253,158,135);fill-rule:nonzero;"/>
                            <path d="M409.986,561L336.6,487.614L263.214,561L336.6,634.386L409.986,561ZM336.6,484.786L412.814,561L336.6,637.214L260.385,561L336.6,484.786Z" style="fill:rgb(253,158,135);fill-rule:nonzero;"/>
                            <path d="M1083.19,561L1009.8,487.614L936.414,561L1009.8,634.386L1083.19,561ZM1009.8,484.786L1086.01,561L1009.8,637.214L933.586,561L1009.8,484.786Z" style="fill:rgb(253,158,135);fill-rule:nonzero;"/>
                            <path d="M712.014,785.4L785.4,858.786L858.786,785.4L785.4,712.014L712.014,785.4ZM785.4,861.615L709.185,785.4L785.4,709.186L861.614,785.4L785.4,861.615Z" style="fill:rgb(253,158,135);fill-rule:nonzero;"/>
                            <path d="M487.614,785.4L561,858.786L634.386,785.4L561,712.014L487.614,785.4ZM561,861.615L484.786,785.4L561,709.186L637.214,785.4L561,861.615Z" style="fill:rgb(253,158,135);fill-rule:nonzero;"/>
                            <path d="M263.214,785.4L336.6,858.786L409.986,785.4L336.6,712.014L263.214,785.4ZM336.6,861.615L260.385,785.4L336.6,709.186L412.814,785.4L336.6,861.615Z" style="fill:rgb(253,158,135);fill-rule:nonzero;"/>
                            <path d="M1083.19,785.4L1009.8,712.014L936.414,785.4L1009.8,858.786L1083.19,785.4ZM1009.8,709.186L1086.01,785.4L1009.8,861.615L933.586,785.4L1009.8,709.186Z" style="fill:rgb(253,158,135);fill-rule:nonzero;"/>
                            <path d="M712.014,112.2L785.4,185.586L858.786,112.2L785.4,38.81L712.014,112.2ZM785.4,188.414L709.185,112.2L785.4,35.99L861.614,112.2L785.4,188.414Z" style="fill:rgb(253,158,135);fill-rule:nonzero;"/>
                            <path d="M487.614,112.2L561,185.586L634.386,112.2L561,38.81L487.614,112.2ZM561,188.414L484.786,112.2L561,35.99L637.214,112.2L561,188.414Z" style="fill:rgb(253,158,135);fill-rule:nonzero;"/>
                            <path d="M263.214,112.2L336.6,185.586L409.986,112.2L336.6,38.81L263.214,112.2ZM336.6,188.414L260.385,112.2L336.6,35.99L412.814,112.2L336.6,188.414Z" style="fill:rgb(253,158,135);fill-rule:nonzero;"/>
                            <path d="M1083.19,112.2L1009.8,38.81L936.414,112.2L1009.8,185.586L1083.19,112.2ZM1009.8,35.99L1086.01,112.2L1009.8,188.414L933.586,112.2L1009.8,35.99Z" style="fill:rgb(253,158,135);fill-rule:nonzero;"/>
                            <path d="M897.6,522.186L970.986,448.8L897.6,375.414L824.214,448.8L897.6,522.186ZM973.814,448.8L897.6,525.014L821.386,448.8L897.6,372.586L973.814,448.8Z" style="fill:rgb(253,158,135);fill-rule:nonzero;"/>
                            <path d="M746.586,448.8L673.2,375.414L599.815,448.8L673.2,522.186L746.586,448.8ZM673.2,372.586L749.414,448.8L673.2,525.014L596.986,448.8L673.2,372.586Z" style="fill:rgb(253,158,135);fill-rule:nonzero;"/>
                            <path d="M522.185,448.8L448.8,375.414L375.414,448.8L448.8,522.186L522.185,448.8ZM448.8,372.586L525.014,448.8L448.8,525.014L372.586,448.8L448.8,372.586Z" style="fill:rgb(253,158,135);fill-rule:nonzero;"/>
                            <path d="M297.786,448.8L224.4,375.414L151.014,448.8L224.4,522.186L297.786,448.8ZM224.4,372.586L300.614,448.8L224.4,525.014L148.186,448.8L224.4,372.586Z" style="fill:rgb(253,158,135);fill-rule:nonzero;"/>
                            <path d="M824.214,673.2L897.6,746.586L970.986,673.2L897.6,599.815L824.214,673.2ZM897.6,749.414L821.386,673.2L897.6,596.986L973.814,673.2L897.6,749.414Z" style="fill:rgb(253,158,135);fill-rule:nonzero;"/>
                            <path d="M599.815,673.2L673.2,746.586L746.586,673.2L673.2,599.815L599.815,673.2ZM673.2,749.414L596.986,673.2L673.2,596.986L749.414,673.2L673.2,749.414Z" style="fill:rgb(253,158,135);fill-rule:nonzero;"/>
                            <path d="M375.414,673.2L448.8,746.586L522.185,673.2L448.8,599.815L375.414,673.2ZM448.8,749.414L372.586,673.2L448.8,596.986L525.014,673.2L448.8,749.414Z" style="fill:rgb(253,158,135);fill-rule:nonzero;"/>
                            <path d="M224.4,599.815L151.014,673.2L224.4,746.586L297.786,673.2L224.4,599.815ZM148.186,673.2L224.4,596.986L300.614,673.2L224.4,749.414L148.186,673.2Z" style="fill:rgb(253,158,135);fill-rule:nonzero;"/>
                            <path d="M897.6,970.986L970.986,897.6L897.6,824.214L824.214,897.6L897.6,970.986ZM973.814,897.6L897.6,973.814L821.386,897.6L897.6,821.386L973.814,897.6Z" style="fill:rgb(253,158,135);fill-rule:nonzero;"/>
                            <path d="M673.2,970.986L746.586,897.6L673.2,824.214L599.815,897.6L673.2,970.986ZM749.414,897.6L673.2,973.814L596.986,897.6L673.2,821.386L749.414,897.6Z" style="fill:rgb(253,158,135);fill-rule:nonzero;"/>
                            <path d="M448.8,970.986L522.185,897.6L448.8,824.214L375.414,897.6L448.8,970.986ZM525.014,897.6L448.8,973.814L372.586,897.6L448.8,821.386L525.014,897.6Z" style="fill:rgb(253,158,135);fill-rule:nonzero;"/>
                            <path d="M224.4,970.986L297.786,897.6L224.4,824.214L151.014,897.6L224.4,970.986ZM300.614,897.6L224.4,973.814L148.186,897.6L224.4,821.386L300.614,897.6Z" style="fill:rgb(253,158,135);fill-rule:nonzero;"/>
                            <path d="M897.6,151.014L824.214,224.4L897.6,297.786L970.986,224.4L897.6,151.014ZM821.386,224.4L897.6,148.186L973.814,224.4L897.6,300.614L821.386,224.4Z" style="fill:rgb(253,158,135);fill-rule:nonzero;"/>
                            <path d="M673.2,151.014L599.815,224.4L673.2,297.786L746.586,224.4L673.2,151.014ZM596.986,224.4L673.2,148.186L749.414,224.4L673.2,300.614L596.986,224.4Z" style="fill:rgb(253,158,135);fill-rule:nonzero;"/>
                            <path d="M448.8,151.014L375.414,224.4L448.8,297.786L522.185,224.4L448.8,151.014ZM372.586,224.4L448.8,148.186L525.014,224.4L448.8,300.614L372.586,224.4Z" style="fill:rgb(253,158,135);fill-rule:nonzero;"/>
                            <path d="M224.4,151.014L151.014,224.4L224.4,297.786L297.786,224.4L224.4,151.014ZM148.186,224.4L224.4,148.186L300.614,224.4L224.4,300.614L148.186,224.4Z" style="fill:rgb(253,158,135);fill-rule:nonzero;"/>
                            <path d="M973.814,0L970.986,0L897.6,73.39L824.214,0L821.386,0L897.6,76.21L973.814,0Z" style="fill:rgb(253,158,135);fill-rule:nonzero;"/>
                            <path d="M749.414,0L746.586,0L673.2,73.39L599.815,0L596.986,0L673.2,76.21L749.414,0Z" style="fill:rgb(253,158,135);fill-rule:nonzero;"/>
                            <path d="M525.014,0L522.185,0L448.8,73.39L375.414,0L372.586,0L448.8,76.21L525.014,0Z" style="fill:rgb(253,158,135);fill-rule:nonzero;"/>
                            <path d="M300.614,0L297.786,0L224.4,73.39L151.014,0L148.186,0L224.4,76.21L300.614,0Z" style="fill:rgb(253,158,135);fill-rule:nonzero;"/>
                            <path d="M1120.59,112.2L1009.8,1.41L899.014,112.2L1009.8,222.986L1065.19,167.593L1120.59,112.2ZM1009.8,225.814L899.014,336.6L1009.8,447.386L1120.59,336.6L1009.8,225.814ZM1009.8,450.214L899.014,561L1009.8,671.786L1120.59,561L1009.8,450.214ZM1009.8,674.614L899.014,785.4L1009.8,896.186L1120.59,785.4L1009.8,674.614ZM1009.8,899.014L899.014,1009.8L1009.8,1120.59L1120.59,1009.8L1009.8,899.014ZM897.6,1008.39L1008.39,897.6L952.993,842.207L897.6,786.815L786.814,897.6L842.207,952.993L897.6,1008.39ZM896.185,1009.8L840.793,954.407L785.4,899.014L674.614,1009.8L785.4,1120.59L896.185,1009.8ZM673.2,1008.39L783.986,897.6L728.593,842.207L673.2,786.815L617.807,842.207L562.414,897.6L673.2,1008.39ZM671.786,1009.8L561,899.014L450.214,1009.8L561,1120.59L671.786,1009.8ZM448.8,1008.39L559.586,897.6L504.193,842.207L448.8,786.815L393.407,842.207L338.014,897.6L393.407,952.993L448.8,1008.39ZM447.386,1009.8L391.993,954.407L336.6,899.014L225.814,1009.8L336.6,1120.59L447.386,1009.8ZM224.4,1008.39L335.186,897.6L279.793,842.207L224.4,786.815L169.007,842.207L113.614,897.6L169.007,952.993L224.4,1008.39ZM222.986,1009.8L167.593,954.407L112.2,899.014L1.414,1009.8L112.2,1120.59L167.593,1065.19L222.986,1009.8ZM112.2,896.186L167.593,840.793L222.986,785.4L167.593,730.007L112.2,674.614L1.414,785.4L112.2,896.186ZM112.2,671.786L167.593,616.393L222.986,561L167.593,505.607L112.2,450.214L1.414,561L112.2,671.786ZM112.2,447.386L222.986,336.6L167.593,281.207L112.2,225.814L1.414,336.6L112.2,447.386ZM112.2,222.986L222.986,112.2L167.593,56.81L112.2,1.41L1.414,112.2L56.807,167.593L112.2,222.986ZM224.4,113.61L113.614,224.4L169.007,279.793L224.4,335.186L335.186,224.4L279.793,169.007L224.4,113.61ZM225.814,112.2L336.6,222.986L447.386,112.2L336.6,1.41L225.814,112.2ZM448.8,113.61L338.014,224.4L393.407,279.793L448.8,335.186L559.586,224.4L504.193,169.007L448.8,113.61ZM450.214,112.2L561,222.986L671.786,112.2L561,1.41L450.214,112.2ZM673.2,113.61L617.807,169.007L562.414,224.4L673.2,335.186L783.986,224.4L728.593,169.007L673.2,113.61ZM674.614,112.2L785.4,222.986L840.793,167.593L896.185,112.2L785.4,1.41L674.614,112.2ZM897.6,559.586L1008.39,448.8L952.993,393.407L897.6,338.014L842.207,393.407L786.814,448.8L842.207,504.193L897.6,559.586ZM897.6,783.986L1008.39,673.2L897.6,562.414L842.207,617.807L786.814,673.2L842.207,728.593L897.6,783.986ZM674.614,785.4L785.4,896.186L896.185,785.4L840.793,730.007L785.4,674.614L674.614,785.4ZM673.2,783.986L783.986,673.2L673.2,562.414L562.414,673.2L673.2,783.986ZM450.214,785.4L561,896.186L671.786,785.4L561,674.614L450.214,785.4ZM448.8,783.986L559.586,673.2L448.8,562.414L393.407,617.807L338.014,673.2L393.407,728.593L448.8,783.986ZM225.814,785.4L336.6,896.186L391.993,840.793L447.386,785.4L391.993,730.007L336.6,674.614L225.814,785.4ZM224.4,562.414L169.007,617.807L113.614,673.2L169.007,728.593L224.4,783.986L335.186,673.2L224.4,562.414ZM224.4,338.014L113.614,448.8L169.007,504.193L224.4,559.586L335.186,448.8L224.4,338.014ZM447.386,336.6L391.993,281.207L336.6,225.814L225.814,336.6L336.6,447.386L447.386,336.6ZM391.993,505.607L336.6,450.214L225.814,561L336.6,671.786L391.993,616.393L447.386,561L391.993,505.607ZM448.8,338.014L338.014,448.8L393.407,504.193L448.8,559.586L559.586,448.8L448.8,338.014ZM671.786,336.6L561,225.814L450.214,336.6L561,447.386L671.786,336.6ZM561,450.214L450.214,561L561,671.786L671.786,561L561,450.214ZM673.2,338.014L562.414,448.8L673.2,559.586L783.986,448.8L673.2,338.014ZM785.4,450.214L674.614,561L785.4,671.786L840.793,616.393L896.185,561L840.793,505.607L785.4,450.214ZM785.4,447.386L840.793,391.993L896.185,336.6L840.793,281.207L785.4,225.814L674.614,336.6L785.4,447.386ZM897.6,113.61L842.207,169.007L786.814,224.4L842.207,279.793L897.6,335.186L1008.39,224.4L952.993,169.007L897.6,113.61ZM1011.21,0L1122,110.79L1122,113.61L1066.61,169.007L1011.21,224.4L1122,335.186L1122,338.014L1066.61,393.407L1011.21,448.8L1122,559.586L1122,562.414L1011.21,673.2L1122,783.986L1122,786.815L1066.61,842.207L1011.21,897.6L1122,1008.39L1122,1011.21L1011.21,1122L1008.39,1122L897.6,1011.21L842.207,1066.61L786.814,1122L783.986,1122L673.2,1011.21L562.414,1122L559.586,1122L448.8,1011.21L393.407,1066.61L338.014,1122L335.186,1122L224.4,1011.21L169.007,1066.61L113.614,1122L110.786,1122L0,1011.21L0,1008.39L110.786,897.6L55.393,842.207L0,786.815L0,783.986L110.786,673.2L0,562.414L0,559.586L110.786,448.8L0,338.014L0,335.186L110.786,224.4L55.393,169.007L0,113.61L0,110.79L110.786,0L113.614,0L169.007,55.39L224.4,110.79L335.186,0L338.014,0L393.407,55.39L448.8,110.79L559.586,0L562.414,0L673.2,110.79L783.986,0L786.814,0L842.207,55.39L897.6,110.79L1008.39,0L1011.21,0Z" style="fill:rgb(253,158,135);fill-rule:nonzero;"/>
                            <path d="M1048.61,0L1045.79,0L1122,76.21L1122,73.39L1048.61,0Z" style="fill:rgb(253,158,135);fill-rule:nonzero;"/>
                            <path d="M1122,525.014L1122,522.186L1048.61,448.8L1122,375.414L1122,372.586L1045.79,448.8L1122,525.014Z" style="fill:rgb(253,158,135);fill-rule:nonzero;"/>
                            <path d="M1122,749.414L1122,746.586L1048.61,673.2L1122,599.815L1122,596.986L1045.79,673.2L1122,749.414Z" style="fill:rgb(253,158,135);fill-rule:nonzero;"/>
                            <path d="M1122,973.814L1122,970.986L1048.61,897.6L1122,824.214L1122,821.386L1045.79,897.6L1122,973.814Z" style="fill:rgb(253,158,135);fill-rule:nonzero;"/>
                            <path d="M1122,300.614L1122,297.786L1048.61,224.4L1122,151.014L1122,148.186L1045.79,224.4L1122,300.614Z" style="fill:rgb(253,158,135);fill-rule:nonzero;"/>
                            <path d="M448.841,560.982C448.84,560.982 448.839,560.981 448.839,560.981L448.838,560.982C448.838,560.983 448.839,560.983 448.839,560.984C448.84,560.983 448.84,560.982 448.841,560.982ZM452.501,570.249C450.713,568.46 449.547,566.802 448.887,565.369C448.233,566.817 447.058,568.498 445.242,570.314C436.619,578.937 426.794,583.092 426.794,583.092C426.794,583.092 430.95,573.267 439.572,564.644C441.361,562.856 443.019,561.69 444.453,561.03C443.005,560.376 441.323,559.201 439.507,557.385C430.884,548.762 426.729,538.937 426.729,538.937C426.729,538.937 436.554,543.093 445.177,551.715C446.966,553.504 448.132,555.162 448.791,556.596C449.445,555.148 450.621,553.466 452.436,551.65C461.059,543.028 470.884,538.872 470.884,538.872C470.884,538.872 466.729,548.697 458.106,557.32C456.317,559.109 454.659,560.275 453.226,560.934C454.674,561.588 456.355,562.763 458.171,564.579C466.794,573.202 470.949,583.027 470.949,583.027C470.949,583.027 461.124,578.872 452.501,570.249Z" style="fill:rgb(253,158,135);fill-rule:nonzero;"/>
                            <path d="M671.787,560.982L671.786,560.981C671.785,560.981 671.785,560.982 671.785,560.982C671.785,560.983 671.786,560.983 671.786,560.984C671.787,560.983 671.787,560.982 671.787,560.982ZM675.448,570.249C673.659,568.46 672.494,566.802 671.834,565.369C671.18,566.817 670.005,568.498 668.189,570.314C659.566,578.937 649.741,583.092 649.741,583.092C649.741,583.092 653.896,573.267 662.519,564.644C664.308,562.856 665.966,561.69 667.4,561.03C665.952,560.376 664.27,559.201 662.454,557.385C653.831,548.762 649.676,538.937 649.676,538.937C649.676,538.937 659.501,543.093 668.124,551.715C669.913,553.504 671.078,555.162 671.738,556.596C672.392,555.148 673.568,553.466 675.383,551.65C684.006,543.028 693.831,538.872 693.831,538.872C693.831,538.872 689.676,548.697 681.053,557.32C679.264,559.109 677.606,560.275 676.172,560.934C677.62,561.588 679.302,562.763 681.118,564.579C689.741,573.202 693.896,583.027 693.896,583.027C693.896,583.027 684.071,578.872 675.448,570.249Z" style="fill:rgb(253,158,135);fill-rule:nonzero;"/>
                            <path d="M897.601,560.982L897.6,560.981C897.599,560.981 897.599,560.982 897.599,560.982C897.599,560.983 897.6,560.983 897.6,560.984C897.601,560.983 897.601,560.982 897.601,560.982ZM901.262,570.249C899.473,568.46 898.308,566.802 897.648,565.369C896.994,566.817 895.819,568.498 894.003,570.314C885.38,578.937 875.555,583.092 875.555,583.092C875.555,583.092 879.71,573.267 888.333,564.644C890.122,562.856 891.78,561.69 893.214,561.03C891.766,560.376 890.084,559.201 888.268,557.385C879.645,548.762 875.49,538.937 875.49,538.937C875.49,538.937 885.315,543.093 893.938,551.715C895.727,553.504 896.892,555.162 897.552,556.596C898.206,555.148 899.381,553.466 901.197,551.65C909.82,543.028 919.645,538.872 919.645,538.872C919.645,538.872 915.49,548.697 906.867,557.32C905.078,559.109 903.42,560.275 901.986,560.934C903.434,561.588 905.116,562.763 906.932,564.579C915.555,573.202 919.71,583.027 919.71,583.027C919.71,583.027 909.885,578.872 901.262,570.249Z" style="fill:rgb(253,158,135);fill-rule:nonzero;"/>
                            <path d="M1118.34,551.715C1109.71,543.093 1099.89,538.937 1099.89,538.937C1099.89,538.937 1104.05,548.762 1112.67,557.385C1114.48,559.201 1116.17,560.376 1117.61,561.03C1116.18,561.69 1114.52,562.856 1112.73,564.644C1104.11,573.267 1099.96,583.092 1099.96,583.092C1099.96,583.092 1109.78,578.937 1118.4,570.314C1120.18,568.539 1121.34,566.893 1122,565.467L1122,556.498C1121.98,556.53 1121.97,556.564 1121.95,556.596C1121.29,555.162 1120.13,553.504 1118.34,551.715Z" style="fill:rgb(253,158,135);fill-rule:nonzero;"/>
                            <path d="M560.842,224.4C560.841,224.4 560.841,224.399 560.841,224.399C560.84,224.399 560.84,224.4 560.839,224.4C560.84,224.401 560.84,224.401 560.841,224.402C560.841,224.401 560.841,224.401 560.842,224.4ZM564.503,233.667C562.714,231.878 561.548,230.22 560.888,228.787C560.234,230.235 559.059,231.916 557.243,233.732C548.621,242.355 538.796,246.51 538.796,246.51C538.796,246.51 542.951,236.685 551.574,228.062C553.363,226.273 555.021,225.108 556.454,224.448C555.006,223.794 553.324,222.619 551.509,220.803C542.886,212.18 538.731,202.355 538.731,202.355C538.731,202.355 548.556,206.51 557.178,215.133C558.967,216.922 560.133,218.58 560.793,220.014C561.447,218.566 562.622,216.884 564.438,215.068C573.06,206.445 582.885,202.29 582.885,202.29C582.885,202.29 578.73,212.115 570.108,220.738C568.319,222.527 566.66,223.693 565.227,224.352C566.675,225.006 568.357,226.182 570.173,227.997C578.795,236.62 582.951,246.445 582.951,246.445C582.951,246.445 573.125,242.29 564.503,233.667Z" style="fill:rgb(253,158,135);fill-rule:nonzero;"/>
                            <path d="M336.403,224.4C336.402,224.4 336.402,224.399 336.401,224.399C336.401,224.399 336.401,224.4 336.4,224.4C336.401,224.401 336.401,224.401 336.402,224.402C336.402,224.401 336.402,224.401 336.403,224.4ZM340.064,233.667C338.275,231.878 337.109,230.22 336.449,228.787C335.795,230.235 334.62,231.916 332.804,233.732C324.182,242.355 314.357,246.51 314.357,246.51C314.357,246.51 318.512,236.685 327.135,228.062C328.923,226.273 330.582,225.108 332.015,224.448C330.567,223.794 328.885,222.619 327.069,220.803C318.447,212.18 314.292,202.355 314.292,202.355C314.292,202.355 324.117,206.51 332.739,215.133C334.528,216.922 335.694,218.58 336.354,220.014C337.008,218.566 338.183,216.884 339.999,215.068C348.621,206.445 358.446,202.29 358.446,202.29C358.446,202.29 354.291,212.115 345.668,220.738C343.88,222.527 342.221,223.693 340.788,224.352C342.236,225.006 343.918,226.182 345.733,227.997C354.356,236.62 358.511,246.445 358.511,246.445C358.511,246.445 348.686,242.29 340.064,233.667Z" style="fill:rgb(253,158,135);fill-rule:nonzero;"/>
                            <path d="M783.789,224.4C783.788,224.4 783.788,224.399 783.787,224.399C783.787,224.399 783.787,224.4 783.786,224.4C783.787,224.401 783.787,224.401 783.788,224.402C783.788,224.401 783.788,224.401 783.789,224.4ZM787.45,233.667C785.661,231.878 784.495,230.22 783.835,228.787C783.181,230.235 782.006,231.916 780.19,233.732C771.568,242.355 761.743,246.51 761.743,246.51C761.743,246.51 765.898,236.685 774.521,228.062C776.31,226.273 777.968,225.108 779.401,224.448C777.953,223.794 776.271,222.619 774.456,220.803C765.833,212.18 761.678,202.355 761.678,202.355C761.678,202.355 771.503,206.51 780.125,215.133C781.914,216.922 783.08,218.58 783.74,220.014C784.394,218.566 785.569,216.884 787.385,215.068C796.007,206.445 805.832,202.29 805.832,202.29C805.832,202.29 801.677,212.115 793.055,220.738C791.266,222.527 789.607,223.693 788.174,224.352C789.622,225.006 791.304,226.182 793.12,227.997C801.742,236.62 805.897,246.445 805.897,246.445C805.897,246.445 796.072,242.29 787.45,233.667Z" style="fill:rgb(253,158,135);fill-rule:nonzero;"/>
                            <path d="M1009.6,224.402L1009.6,224.399L1009.6,224.402ZM1013.26,233.667C1011.47,231.878 1010.31,230.22 1009.65,228.787C1009,230.235 1007.82,231.916 1006,233.732C997.382,242.355 987.557,246.51 987.557,246.51C987.557,246.51 991.712,236.685 1000.33,228.062C1002.12,226.273 1003.78,225.108 1005.22,224.448C1003.77,223.794 1002.09,222.619 1000.27,220.803C991.647,212.18 987.492,202.355 987.492,202.355C987.492,202.355 997.316,206.51 1005.94,215.133C1007.73,216.922 1008.89,218.58 1009.55,220.014C1010.21,218.566 1011.38,216.884 1013.2,215.068C1021.82,206.445 1031.65,202.29 1031.65,202.29C1031.65,202.29 1027.49,212.115 1018.87,220.738C1017.08,222.527 1015.42,223.693 1013.99,224.352C1015.44,225.006 1017.12,226.182 1018.93,227.997C1027.56,236.62 1031.71,246.445 1031.71,246.445C1031.71,246.445 1021.89,242.29 1013.26,233.667Z" style="fill:rgb(253,158,135);fill-rule:nonzero;"/>
                            <path d="M560.842,448.788C560.841,448.788 560.841,448.787 560.841,448.787C560.84,448.787 560.84,448.788 560.839,448.788C560.84,448.789 560.84,448.789 560.841,448.789C560.841,448.789 560.841,448.788 560.842,448.788ZM564.503,458.055C562.714,456.266 561.548,454.608 560.888,453.174C560.234,454.622 559.059,456.304 557.243,458.12C548.621,466.743 538.796,470.898 538.796,470.898C538.796,470.898 542.951,461.073 551.574,452.45C553.363,450.661 555.021,449.496 556.454,448.836C555.006,448.182 553.324,447.007 551.509,445.191C542.886,436.568 538.731,426.743 538.731,426.743C538.731,426.743 548.556,430.898 557.178,439.521C558.967,441.31 560.133,442.968 560.793,444.402C561.447,442.954 562.622,441.272 564.438,439.456C573.06,430.833 582.885,426.678 582.885,426.678C582.885,426.678 578.73,436.503 570.108,445.126C568.319,446.915 566.66,448.081 565.227,448.74C566.675,449.394 568.357,450.57 570.173,452.385C578.795,461.008 582.951,470.833 582.951,470.833C582.951,470.833 573.125,466.678 564.503,458.055Z" style="fill:rgb(253,158,135);fill-rule:nonzero;"/>
                            <path d="M336.403,448.788C336.402,448.788 336.402,448.787 336.401,448.787C336.401,448.787 336.401,448.788 336.4,448.788C336.401,448.789 336.401,448.789 336.402,448.789C336.402,448.789 336.402,448.788 336.403,448.788ZM340.064,458.055C338.275,456.266 337.109,454.608 336.449,453.174C335.795,454.622 334.62,456.304 332.804,458.12C324.182,466.743 314.357,470.898 314.357,470.898C314.357,470.898 318.512,461.073 327.135,452.45C328.923,450.661 330.582,449.496 332.015,448.836C330.567,448.182 328.885,447.007 327.069,445.191C318.447,436.568 314.292,426.743 314.292,426.743C314.292,426.743 324.117,430.898 332.739,439.521C334.528,441.31 335.694,442.968 336.354,444.402C337.008,442.954 338.183,441.272 339.999,439.456C348.621,430.833 358.446,426.678 358.446,426.678C358.446,426.678 354.291,436.503 345.668,445.126C343.88,446.915 342.221,448.081 340.788,448.74C342.236,449.394 343.918,450.57 345.733,452.385C354.356,461.008 358.511,470.833 358.511,470.833C358.511,470.833 348.686,466.678 340.064,458.055Z" style="fill:rgb(253,158,135);fill-rule:nonzero;"/>
                            <path d="M783.789,448.788C783.788,448.788 783.788,448.787 783.787,448.787C783.787,448.787 783.787,448.788 783.786,448.788C783.787,448.789 783.787,448.789 783.788,448.789C783.788,448.789 783.788,448.788 783.789,448.788ZM787.45,458.055C785.661,456.266 784.495,454.608 783.835,453.174C783.181,454.622 782.006,456.304 780.19,458.12C771.568,466.743 761.743,470.898 761.743,470.898C761.743,470.898 765.898,461.073 774.521,452.45C776.31,450.661 777.968,449.496 779.401,448.836C777.953,448.182 776.271,447.007 774.456,445.191C765.833,436.568 761.678,426.743 761.678,426.743C761.678,426.743 771.503,430.898 780.125,439.521C781.914,441.31 783.08,442.968 783.74,444.402C784.394,442.954 785.569,441.272 787.385,439.456C796.007,430.833 805.832,426.678 805.832,426.678C805.832,426.678 801.677,436.503 793.055,445.126C791.266,446.915 789.607,448.081 788.174,448.74C789.622,449.394 791.304,450.57 793.12,452.385C801.742,461.008 805.897,470.833 805.897,470.833C805.897,470.833 796.072,466.678 787.45,458.055Z" style="fill:rgb(253,158,135);fill-rule:nonzero;"/>
                            <path d="M1009.6,448.789L1009.6,448.787L1009.6,448.789ZM1013.26,458.055C1011.47,456.266 1010.31,454.608 1009.65,453.174C1009,454.622 1007.82,456.304 1006,458.12C997.382,466.743 987.557,470.898 987.557,470.898C987.557,470.898 991.712,461.073 1000.33,452.45C1002.12,450.661 1003.78,449.496 1005.22,448.836C1003.77,448.182 1002.09,447.007 1000.27,445.191C991.647,436.568 987.492,426.743 987.492,426.743C987.492,426.743 997.316,430.898 1005.94,439.521C1007.73,441.31 1008.89,442.968 1009.55,444.402C1010.21,442.954 1011.38,441.272 1013.2,439.456C1021.82,430.833 1031.65,426.678 1031.65,426.678C1031.65,426.678 1027.49,436.503 1018.87,445.126C1017.08,446.915 1015.42,448.081 1013.99,448.74C1015.44,449.394 1017.12,450.57 1018.93,452.385C1027.56,461.008 1031.71,470.833 1031.71,470.833C1031.71,470.833 1021.89,466.678 1013.26,458.055Z" style="fill:rgb(253,158,135);fill-rule:nonzero;"/>
                            <path d="M560.842,673.176C560.841,673.176 560.841,673.175 560.841,673.175C560.84,673.175 560.84,673.176 560.839,673.176C560.84,673.177 560.84,673.177 560.841,673.178C560.841,673.177 560.841,673.176 560.842,673.176ZM564.503,682.443C562.714,680.654 561.548,678.996 560.888,677.562C560.234,679.01 559.059,680.692 557.243,682.508C548.621,691.131 538.796,695.286 538.796,695.286C538.796,695.286 542.951,685.461 551.574,676.838C553.363,675.049 555.021,673.884 556.454,673.224C555.006,672.57 553.324,671.395 551.509,669.579C542.886,660.956 538.731,651.131 538.731,651.131C538.731,651.131 548.556,655.286 557.178,663.909C558.967,665.698 560.133,667.356 560.793,668.79C561.447,667.342 562.622,665.66 564.438,663.844C573.06,655.221 582.885,651.066 582.885,651.066C582.885,651.066 578.73,660.891 570.108,669.514C568.319,671.303 566.66,672.469 565.227,673.128C566.675,673.782 568.357,674.958 570.173,676.773C578.795,685.396 582.951,695.221 582.951,695.221C582.951,695.221 573.125,691.066 564.503,682.443Z" style="fill:rgb(253,158,135);fill-rule:nonzero;"/>
                            <path d="M336.403,673.176C336.402,673.176 336.402,673.175 336.401,673.175C336.401,673.175 336.401,673.176 336.4,673.176C336.401,673.177 336.401,673.177 336.402,673.178C336.402,673.177 336.402,673.176 336.403,673.176ZM340.064,682.443C338.275,680.654 337.109,678.996 336.449,677.562C335.795,679.01 334.62,680.692 332.804,682.508C324.182,691.131 314.357,695.286 314.357,695.286C314.357,695.286 318.512,685.461 327.135,676.838C328.923,675.049 330.582,673.884 332.015,673.224C330.567,672.57 328.885,671.395 327.069,669.579C318.447,660.956 314.292,651.131 314.292,651.131C314.292,651.131 324.117,655.286 332.739,663.909C334.528,665.698 335.694,667.356 336.354,668.79C337.008,667.342 338.183,665.66 339.999,663.844C348.621,655.221 358.446,651.066 358.446,651.066C358.446,651.066 354.291,660.891 345.668,669.514C343.88,671.303 342.221,672.469 340.788,673.128C342.236,673.782 343.918,674.958 345.733,676.773C354.356,685.396 358.511,695.221 358.511,695.221C358.511,695.221 348.686,691.066 340.064,682.443Z" style="fill:rgb(253,158,135);fill-rule:nonzero;"/>
                            <path d="M783.789,673.176C783.788,673.176 783.788,673.175 783.787,673.175C783.787,673.175 783.787,673.176 783.786,673.176C783.787,673.177 783.787,673.177 783.788,673.178C783.788,673.177 783.788,673.176 783.789,673.176ZM787.45,682.443C785.661,680.654 784.495,678.996 783.835,677.562C783.181,679.01 782.006,680.692 780.19,682.508C771.568,691.131 761.743,695.286 761.743,695.286C761.743,695.286 765.898,685.461 774.521,676.838C776.31,675.049 777.968,673.884 779.401,673.224C777.953,672.57 776.271,671.395 774.456,669.579C765.833,660.956 761.678,651.131 761.678,651.131C761.678,651.131 771.503,655.286 780.125,663.909C781.914,665.698 783.08,667.356 783.74,668.79C784.394,667.342 785.569,665.66 787.385,663.844C796.007,655.221 805.832,651.066 805.832,651.066C805.832,651.066 801.677,660.891 793.055,669.514C791.266,671.303 789.607,672.469 788.174,673.128C789.622,673.782 791.304,674.958 793.12,676.773C801.742,685.396 805.897,695.221 805.897,695.221C805.897,695.221 796.072,691.066 787.45,682.443Z" style="fill:rgb(253,158,135);fill-rule:nonzero;"/>
                            <path d="M1009.6,673.178L1009.6,673.175L1009.6,673.178ZM1013.26,682.443C1011.47,680.654 1010.31,678.996 1009.65,677.562C1009,679.01 1007.82,680.692 1006,682.508C997.382,691.131 987.557,695.286 987.557,695.286C987.557,695.286 991.712,685.461 1000.33,676.838C1002.12,675.049 1003.78,673.884 1005.22,673.224C1003.77,672.57 1002.09,671.395 1000.27,669.579C991.647,660.956 987.492,651.131 987.492,651.131C987.492,651.131 997.316,655.286 1005.94,663.909C1007.73,665.698 1008.89,667.356 1009.55,668.79C1010.21,667.342 1011.38,665.66 1013.2,663.844C1021.82,655.221 1031.65,651.066 1031.65,651.066C1031.65,651.066 1027.49,660.891 1018.87,669.514C1017.08,671.303 1015.42,672.469 1013.99,673.128C1015.44,673.782 1017.12,674.958 1018.93,676.773C1027.56,685.396 1031.71,695.221 1031.71,695.221C1031.71,695.221 1021.89,691.066 1013.26,682.443Z" style="fill:rgb(253,158,135);fill-rule:nonzero;"/>
                            <path d="M556.356,0C556.388,0.02 556.422,0.03 556.454,0.05C555.021,0.71 553.363,1.87 551.574,3.66C542.951,12.29 538.796,22.11 538.796,22.11C538.796,22.11 548.621,17.95 557.243,9.33C559.059,7.52 560.234,5.83 560.888,4.39C561.548,5.82 562.714,7.48 564.503,9.27C573.125,17.89 582.951,22.04 582.951,22.04C582.951,22.04 578.795,12.22 570.173,3.6C568.397,1.82 566.751,0.66 565.325,0L556.356,0Z" style="fill:rgb(253,158,135);fill-rule:nonzero;"/>
                            <path d="M331.917,0C331.949,0.02 331.983,0.03 332.015,0.05C330.582,0.71 328.923,1.87 327.135,3.66C318.512,12.29 314.357,22.11 314.357,22.11C314.357,22.11 324.182,17.95 332.804,9.33C334.62,7.52 335.795,5.83 336.449,4.39C337.109,5.82 338.275,7.48 340.064,9.27C348.686,17.89 358.511,22.04 358.511,22.04C358.511,22.04 354.356,12.22 345.733,3.6C343.958,1.82 342.312,0.66 340.886,0L331.917,0Z" style="fill:rgb(253,158,135);fill-rule:nonzero;"/>
                            <path d="M779.303,0C779.335,0.02 779.369,0.03 779.401,0.05C777.968,0.71 776.31,1.87 774.521,3.66C765.898,12.29 761.743,22.11 761.743,22.11C761.743,22.11 771.568,17.95 780.19,9.33C782.006,7.52 783.181,5.83 783.835,4.39C784.495,5.82 785.661,7.48 787.45,9.27C796.072,17.89 805.897,22.04 805.897,22.04C805.897,22.04 801.742,12.22 793.12,3.6C791.344,1.82 789.698,0.66 788.272,0L779.303,0Z" style="fill:rgb(253,158,135);fill-rule:nonzero;"/>
                            <path d="M1014.09,0L1005.12,0C1005.15,0.02 1005.18,0.03 1005.22,0.05C1003.78,0.71 1002.12,1.87 1000.33,3.66C991.712,12.29 987.557,22.11 987.557,22.11C987.557,22.11 997.382,17.95 1006,9.33C1007.82,7.52 1009,5.83 1009.65,4.39C1010.31,5.82 1011.47,7.48 1013.26,9.27C1021.89,17.89 1031.71,22.04 1031.71,22.04C1031.71,22.04 1027.56,12.22 1018.93,3.6C1017.16,1.82 1015.51,0.66 1014.09,0Z" style="fill:rgb(253,158,135);fill-rule:nonzero;"/>
                            <path d="M448.841,112.2L448.838,112.2L448.841,112.2ZM452.501,121.47C450.713,119.68 449.547,118.02 448.887,116.59C448.233,118.03 447.058,119.72 445.242,121.53C436.619,130.155 426.794,134.31 426.794,134.31C426.794,134.31 430.95,124.485 439.572,115.86C441.361,114.07 443.019,112.91 444.453,112.25C443.005,111.59 441.323,110.42 439.507,108.6C430.884,99.98 426.729,90.161 426.729,90.161C426.729,90.161 436.554,94.311 445.177,102.93C446.966,104.72 448.132,106.38 448.791,107.81C449.445,106.37 450.621,104.68 452.436,102.87C461.059,94.25 470.884,90.09 470.884,90.09C470.884,90.09 466.729,99.91 458.106,108.54C456.317,110.33 454.659,111.49 453.226,112.15C454.674,112.81 456.355,113.98 458.171,115.8C466.794,124.42 470.949,134.245 470.949,134.245C470.949,134.245 461.124,130.09 452.501,121.47Z" style="fill:rgb(253,158,135);fill-rule:nonzero;"/>
                            <path d="M671.787,112.2L671.785,112.2L671.787,112.2ZM675.448,121.47C673.659,119.68 672.494,118.02 671.834,116.59C671.18,118.03 670.005,119.72 668.189,121.53C659.566,130.155 649.741,134.31 649.741,134.31C649.741,134.31 653.896,124.485 662.519,115.86C664.308,114.07 665.966,112.91 667.4,112.25C665.952,111.59 664.27,110.42 662.454,108.6C653.831,99.98 649.676,90.161 649.676,90.161C649.676,90.161 659.501,94.311 668.124,102.93C669.913,104.72 671.078,106.38 671.738,107.81C672.392,106.37 673.568,104.68 675.383,102.87C684.006,94.25 693.831,90.09 693.831,90.09C693.831,90.09 689.676,99.91 681.053,108.54C679.264,110.33 677.606,111.49 676.172,112.15C677.62,112.81 679.302,113.98 681.118,115.8C689.741,124.42 693.896,134.245 693.896,134.245C693.896,134.245 684.071,130.09 675.448,121.47Z" style="fill:rgb(253,158,135);fill-rule:nonzero;"/>
                            <path d="M897.601,112.2L897.599,112.2L897.601,112.2ZM901.262,121.47C899.473,119.68 898.308,118.02 897.648,116.59C896.994,118.03 895.819,119.72 894.003,121.53C885.38,130.155 875.555,134.31 875.555,134.31C875.555,134.31 879.71,124.485 888.333,115.86C890.122,114.07 891.78,112.91 893.214,112.25C891.766,111.59 890.084,110.42 888.268,108.6C879.645,99.98 875.49,90.161 875.49,90.161C875.49,90.161 885.315,94.311 893.938,102.93C895.727,104.72 896.892,106.38 897.552,107.81C898.206,106.37 899.381,104.68 901.197,102.87C909.82,94.25 919.645,90.09 919.645,90.09C919.645,90.09 915.49,99.91 906.867,108.54C905.078,110.33 903.42,111.49 901.986,112.15C903.434,112.81 905.116,113.98 906.932,115.8C915.555,124.42 919.71,134.245 919.71,134.245C919.71,134.245 909.885,130.09 901.262,121.47Z" style="fill:rgb(253,158,135);fill-rule:nonzero;"/>
                            <path d="M1118.34,102.93C1109.71,94.311 1099.89,90.161 1099.89,90.161C1099.89,90.161 1104.05,99.98 1112.67,108.6C1114.48,110.42 1116.17,111.59 1117.61,112.25C1116.18,112.91 1114.52,114.07 1112.73,115.86C1104.11,124.485 1099.96,134.31 1099.96,134.31C1099.96,134.31 1109.78,130.155 1118.4,121.53C1120.18,119.76 1121.34,118.11 1122,116.68L1122,107.72C1121.98,107.75 1121.97,107.78 1121.95,107.81C1121.29,106.38 1120.13,104.72 1118.34,102.93Z" style="fill:rgb(253,158,135);fill-rule:nonzero;"/>
                            <path d="M448.841,338.014C448.84,338.014 448.839,338.013 448.839,338.013L448.838,338.014C448.838,338.015 448.839,338.015 448.839,338.016C448.84,338.015 448.84,338.015 448.841,338.014ZM452.501,347.281C450.713,345.492 449.547,343.834 448.887,342.401C448.233,343.849 447.058,345.53 445.242,347.346C436.619,355.969 426.794,360.124 426.794,360.124C426.794,360.124 430.95,350.299 439.572,341.677C441.361,339.888 443.019,338.722 444.453,338.062C443.005,337.408 441.323,336.233 439.507,334.417C430.884,325.794 426.729,315.969 426.729,315.969C426.729,315.969 436.554,320.125 445.177,328.747C446.966,330.536 448.132,332.194 448.791,333.628C449.445,332.18 450.621,330.498 452.436,328.682C461.059,320.06 470.884,315.904 470.884,315.904C470.884,315.904 466.729,325.729 458.106,334.352C456.317,336.141 454.659,337.307 453.226,337.966C454.674,338.62 456.355,339.796 458.171,341.611C466.794,350.234 470.949,360.059 470.949,360.059C470.949,360.059 461.124,355.904 452.501,347.281Z" style="fill:rgb(253,158,135);fill-rule:nonzero;"/>
                            <path d="M671.787,338.014L671.786,338.013C671.785,338.013 671.785,338.014 671.785,338.014C671.785,338.015 671.786,338.015 671.786,338.016C671.787,338.015 671.787,338.015 671.787,338.014ZM675.448,347.281C673.659,345.492 672.494,343.834 671.834,342.401C671.18,343.849 670.005,345.53 668.189,347.346C659.566,355.969 649.741,360.124 649.741,360.124C649.741,360.124 653.896,350.299 662.519,341.677C664.308,339.888 665.966,338.722 667.4,338.062C665.952,337.408 664.27,336.233 662.454,334.417C653.831,325.794 649.676,315.969 649.676,315.969C649.676,315.969 659.501,320.125 668.124,328.747C669.913,330.536 671.078,332.194 671.738,333.628C672.392,332.18 673.568,330.498 675.383,328.682C684.006,320.06 693.831,315.904 693.831,315.904C693.831,315.904 689.676,325.729 681.053,334.352C679.264,336.141 677.606,337.307 676.172,337.966C677.62,338.62 679.302,339.796 681.118,341.611C689.741,350.234 693.896,360.059 693.896,360.059C693.896,360.059 684.071,355.904 675.448,347.281Z" style="fill:rgb(253,158,135);fill-rule:nonzero;"/>
                            <path d="M897.601,338.014L897.6,338.013C897.599,338.013 897.599,338.014 897.599,338.014C897.599,338.015 897.6,338.015 897.6,338.016C897.601,338.015 897.601,338.015 897.601,338.014ZM901.262,347.281C899.473,345.492 898.308,343.834 897.648,342.401C896.994,343.849 895.819,345.53 894.003,347.346C885.38,355.969 875.555,360.124 875.555,360.124C875.555,360.124 879.71,350.299 888.333,341.677C890.122,339.888 891.78,338.722 893.214,338.062C891.766,337.408 890.084,336.233 888.268,334.417C879.645,325.794 875.49,315.969 875.49,315.969C875.49,315.969 885.315,320.125 893.938,328.747C895.727,330.536 896.892,332.194 897.552,333.628C898.206,332.18 899.381,330.498 901.197,328.682C909.82,320.06 919.645,315.904 919.645,315.904C919.645,315.904 915.49,325.729 906.867,334.352C905.078,336.141 903.42,337.307 901.986,337.966C903.434,338.62 905.116,339.796 906.932,341.611C915.555,350.234 919.71,360.059 919.71,360.059C919.71,360.059 909.885,355.904 901.262,347.281Z" style="fill:rgb(253,158,135);fill-rule:nonzero;"/>
                            <path d="M1118.34,328.747C1109.71,320.125 1099.89,315.969 1099.89,315.969C1099.89,315.969 1104.05,325.794 1112.67,334.417C1114.48,336.233 1116.17,337.408 1117.61,338.062C1116.18,338.722 1114.52,339.888 1112.73,341.677C1104.11,350.299 1099.96,360.124 1099.96,360.124C1099.96,360.124 1109.78,355.969 1118.4,347.346C1120.18,345.571 1121.34,343.925 1122,342.499L1122,333.53C1121.98,333.562 1121.97,333.596 1121.95,333.628C1121.29,332.194 1120.13,330.536 1118.34,328.747Z" style="fill:rgb(253,158,135);fill-rule:nonzero;"/>
                            <path d="M448.841,785.4C448.84,785.399 448.839,785.399 448.839,785.398C448.839,785.399 448.838,785.4 448.838,785.4C448.838,785.401 448.839,785.401 448.839,785.401C448.84,785.401 448.84,785.4 448.841,785.4ZM452.501,794.667C450.713,792.878 449.547,791.22 448.887,789.786C448.233,791.234 447.058,792.916 445.242,794.732C436.619,803.355 426.794,807.51 426.794,807.51C426.794,807.51 430.95,797.685 439.572,789.062C441.361,787.273 443.019,786.108 444.453,785.448C443.005,784.794 441.323,783.618 439.507,781.803C430.884,773.18 426.729,763.355 426.729,763.355C426.729,763.355 436.554,767.51 445.177,776.133C446.966,777.922 448.132,779.58 448.791,781.014C449.445,779.566 450.621,777.884 452.436,776.068C461.059,767.445 470.884,763.29 470.884,763.29C470.884,763.29 466.729,773.115 458.106,781.738C456.317,783.527 454.659,784.692 453.226,785.352C454.674,786.006 456.355,787.181 458.171,788.997C466.794,797.62 470.949,807.445 470.949,807.445C470.949,807.445 461.124,803.29 452.501,794.667Z" style="fill:rgb(253,158,135);fill-rule:nonzero;"/>
                            <path d="M671.787,785.4C671.787,785.399 671.786,785.399 671.786,785.398C671.785,785.399 671.785,785.4 671.785,785.4C671.785,785.401 671.786,785.401 671.786,785.401C671.787,785.401 671.787,785.4 671.787,785.4ZM675.448,794.667C673.659,792.878 672.494,791.22 671.834,789.786C671.18,791.234 670.005,792.916 668.189,794.732C659.566,803.355 649.741,807.51 649.741,807.51C649.741,807.51 653.896,797.685 662.519,789.062C664.308,787.273 665.966,786.108 667.4,785.448C665.952,784.794 664.27,783.618 662.454,781.803C653.831,773.18 649.676,763.355 649.676,763.355C649.676,763.355 659.501,767.51 668.124,776.133C669.913,777.922 671.078,779.58 671.738,781.014C672.392,779.566 673.568,777.884 675.383,776.068C684.006,767.445 693.831,763.29 693.831,763.29C693.831,763.29 689.676,773.115 681.053,781.738C679.264,783.527 677.606,784.692 676.172,785.352C677.62,786.006 679.302,787.181 681.118,788.997C689.741,797.62 693.896,807.445 693.896,807.445C693.896,807.445 684.071,803.29 675.448,794.667Z" style="fill:rgb(253,158,135);fill-rule:nonzero;"/>
                            <path d="M897.601,785.4C897.601,785.399 897.6,785.399 897.6,785.398C897.599,785.399 897.599,785.4 897.599,785.4C897.599,785.401 897.6,785.401 897.6,785.401C897.601,785.401 897.601,785.4 897.601,785.4ZM901.262,794.667C899.473,792.878 898.308,791.22 897.648,789.786C896.994,791.234 895.819,792.916 894.003,794.732C885.38,803.355 875.555,807.51 875.555,807.51C875.555,807.51 879.71,797.685 888.333,789.062C890.122,787.273 891.78,786.108 893.214,785.448C891.766,784.794 890.084,783.618 888.268,781.803C879.645,773.18 875.49,763.355 875.49,763.355C875.49,763.355 885.315,767.51 893.938,776.133C895.727,777.922 896.892,779.58 897.552,781.014C898.206,779.566 899.381,777.884 901.197,776.068C909.82,767.445 919.645,763.29 919.645,763.29C919.645,763.29 915.49,773.115 906.867,781.738C905.078,783.527 903.42,784.692 901.986,785.352C903.434,786.006 905.116,787.181 906.932,788.997C915.555,797.62 919.71,807.445 919.71,807.445C919.71,807.445 909.885,803.29 901.262,794.667Z" style="fill:rgb(253,158,135);fill-rule:nonzero;"/>
                            <path d="M1118.34,776.133C1109.71,767.51 1099.89,763.355 1099.89,763.355C1099.89,763.355 1104.05,773.18 1112.67,781.803C1114.48,783.618 1116.17,784.794 1117.61,785.448C1116.18,786.108 1114.52,787.273 1112.73,789.062C1104.11,797.685 1099.96,807.51 1099.96,807.51C1099.96,807.51 1109.78,803.355 1118.4,794.732C1120.18,792.956 1121.34,791.311 1122,789.885L1122,785.398L1122,785.399L1122,780.915C1121.98,780.948 1121.97,780.982 1121.95,781.014C1121.29,779.58 1120.13,777.922 1118.34,776.133Z" style="fill:rgb(253,158,135);fill-rule:nonzero;"/>
                            <path d="M1195.38,0L1122,73.39L1122,76.21L1198.21,0L1195.38,0Z" style="fill:rgb(253,158,135);fill-rule:nonzero;"/>
                            <path d="M1122,372.586L1122,375.414L1195.38,448.8L1122,522.186L1122,525.014L1198.21,448.8L1122,372.586Z" style="fill:rgb(253,158,135);fill-rule:nonzero;"/>
                            <path d="M1122,596.986L1122,599.815L1195.38,673.2L1122,746.586L1122,749.414L1198.21,673.2L1122,596.986Z" style="fill:rgb(253,158,135);fill-rule:nonzero;"/>
                            <path d="M1122,821.386L1122,824.214L1195.38,897.6L1122,970.986L1122,973.814L1198.21,897.6L1122,821.386Z" style="fill:rgb(253,158,135);fill-rule:nonzero;"/>
                            <path d="M1122,148.186L1122,151.014L1195.38,224.4L1122,297.786L1122,300.614L1198.21,224.4L1122,148.186Z" style="fill:rgb(253,158,135);fill-rule:nonzero;"/>
                            <path d="M1126.39,560.934C1127.82,560.275 1129.48,559.109 1131.27,557.32C1139.89,548.697 1144.04,538.872 1144.04,538.872C1144.04,538.872 1134.22,543.028 1125.6,551.65C1123.82,553.426 1122.66,555.072 1122,556.498L1122,560.981C1122,560.981 1122,560.982 1122,560.982C1122,560.982 1122,560.983 1122,560.984L1122,560.983L1122,565.467C1122.02,565.434 1122.03,565.401 1122.05,565.369C1122.71,566.802 1123.87,568.46 1125.66,570.249C1134.28,578.872 1144.11,583.027 1144.11,583.027C1144.11,583.027 1139.95,573.202 1131.33,564.579C1129.52,562.763 1127.83,561.588 1126.39,560.934Z" style="fill:rgb(253,158,135);fill-rule:nonzero;"/>
                            <path d="M1126.39,112.15C1127.82,111.49 1129.48,110.33 1131.27,108.54C1139.89,99.91 1144.04,90.09 1144.04,90.09C1144.04,90.09 1134.22,94.25 1125.6,102.87C1123.82,104.64 1122.66,106.29 1122,107.72L1122,112.2L1122,112.2L1122,112.2L1122,116.68C1122.02,116.65 1122.03,116.62 1122.05,116.59C1122.71,118.02 1123.87,119.68 1125.66,121.47C1134.28,130.09 1144.11,134.245 1144.11,134.245C1144.11,134.245 1139.95,124.42 1131.33,115.8C1129.52,113.98 1127.83,112.81 1126.39,112.15Z" style="fill:rgb(253,158,135);fill-rule:nonzero;"/>
                            <path d="M1126.39,337.966C1127.82,337.307 1129.48,336.141 1131.27,334.352C1139.89,325.729 1144.04,315.904 1144.04,315.904C1144.04,315.904 1134.22,320.06 1125.6,328.682C1123.82,330.458 1122.66,332.104 1122,333.53L1122,338.013C1122,338.013 1122,338.014 1122,338.014C1122,338.015 1122,338.015 1122,338.016L1122,338.015L1122,342.499C1122.02,342.466 1122.03,342.433 1122.05,342.401C1122.71,343.834 1123.87,345.492 1125.66,347.281C1134.28,355.904 1144.11,360.059 1144.11,360.059C1144.11,360.059 1139.95,350.234 1131.33,341.611C1129.52,339.796 1127.83,338.62 1126.39,337.966Z" style="fill:rgb(253,158,135);fill-rule:nonzero;"/>
                            <path d="M1126.39,785.352C1127.82,784.692 1129.48,783.527 1131.27,781.738C1139.89,773.115 1144.04,763.29 1144.04,763.29C1144.04,763.29 1134.22,767.445 1125.6,776.068C1123.82,777.843 1122.66,779.489 1122,780.915L1122,785.399L1122,785.4C1122,785.4 1122,785.401 1122,785.401L1122,789.885C1122.02,789.852 1122.03,789.818 1122.05,789.786C1122.71,791.22 1123.87,792.878 1125.66,794.667C1134.28,803.29 1144.11,807.445 1144.11,807.445C1144.11,807.445 1139.95,797.62 1131.33,788.997C1129.52,787.181 1127.83,786.006 1126.39,785.352Z" style="fill:rgb(253,158,135);fill-rule:nonzero;"/>
                            <path d="M821.386,0L824.214,0L897.6,-73.385L970.986,0L973.814,0L897.6,-76.213L821.386,0Z" style="fill:rgb(253,158,135);fill-rule:nonzero;"/>
                            <path d="M596.986,0L599.815,0L673.2,-73.385L746.586,0L749.414,0L673.2,-76.213L596.986,0Z" style="fill:rgb(253,158,135);fill-rule:nonzero;"/>
                            <path d="M372.586,0L375.414,0L448.8,-73.385L522.185,0L525.014,0L448.8,-76.213L372.586,0Z" style="fill:rgb(253,158,135);fill-rule:nonzero;"/>
                            <path d="M148.186,0L151.014,0L224.4,-73.385L297.786,0L300.614,0L224.4,-76.213L148.186,0Z" style="fill:rgb(253,158,135);fill-rule:nonzero;"/>
                            <path d="M1048.61,0L1122,-73.385L1122,-76.213L1045.79,0L1048.61,0Z" style="fill:rgb(253,158,135);fill-rule:nonzero;"/>
                            <path d="M565.325,0C565.293,-0.015 565.259,-0.033 565.227,-0.047C566.66,-0.707 568.319,-1.873 570.108,-3.662C578.73,-12.284 582.885,-22.109 582.885,-22.109C582.885,-22.109 573.06,-17.954 564.438,-9.332C562.622,-7.516 561.447,-5.834 560.793,-4.386C560.133,-5.819 558.967,-7.478 557.178,-9.267C548.556,-17.889 538.731,-22.044 538.731,-22.044C538.731,-22.044 542.886,-12.219 551.509,-3.597C553.284,-1.821 554.93,-0.662 556.356,0L560.839,0C560.84,0 560.84,-0.001 560.841,-0.001C560.841,-0.001 560.841,0 560.842,0L565.325,0Z" style="fill:rgb(253,158,135);fill-rule:nonzero;"/>
                            <path d="M340.886,0C340.854,-0.015 340.82,-0.033 340.788,-0.047C342.221,-0.707 343.88,-1.873 345.668,-3.662C354.291,-12.284 358.446,-22.109 358.446,-22.109C358.446,-22.109 348.621,-17.954 339.999,-9.332C338.183,-7.516 337.008,-5.834 336.354,-4.386C335.694,-5.819 334.528,-7.478 332.739,-9.267C324.117,-17.889 314.292,-22.044 314.292,-22.044C314.292,-22.044 318.447,-12.219 327.069,-3.597C328.845,-1.821 330.491,-0.662 331.917,0L336.4,0C336.401,0 336.401,-0.001 336.401,-0.001C336.402,-0.001 336.402,0 336.403,0L340.886,0Z" style="fill:rgb(253,158,135);fill-rule:nonzero;"/>
                            <path d="M788.272,0C788.24,-0.015 788.206,-0.033 788.174,-0.047C789.607,-0.707 791.266,-1.873 793.055,-3.662C801.677,-12.284 805.832,-22.109 805.832,-22.109C805.832,-22.109 796.007,-17.954 787.385,-9.332C785.569,-7.516 784.394,-5.834 783.74,-4.386C783.08,-5.819 781.914,-7.478 780.125,-9.267C771.503,-17.889 761.678,-22.044 761.678,-22.044C761.678,-22.044 765.833,-12.219 774.456,-3.597C776.231,-1.821 777.877,-0.662 779.303,0L783.786,0C783.787,0 783.787,-0.001 783.787,-0.001C783.788,-0.001 783.788,0 783.789,0L788.272,0Z" style="fill:rgb(253,158,135);fill-rule:nonzero;"/>
                            <path d="M1009.55,-4.386C1008.89,-5.819 1007.73,-7.478 1005.94,-9.267C997.316,-17.889 987.492,-22.044 987.492,-22.044C987.492,-22.044 991.647,-12.219 1000.27,-3.597C1002.04,-1.821 1003.69,-0.662 1005.12,0L1009.6,0L1009.6,-0.001L1009.6,0L1014.09,0C1014.05,-0.015 1014.02,-0.033 1013.99,-0.047C1015.42,-0.707 1017.08,-1.873 1018.87,-3.662C1027.49,-12.284 1031.65,-22.109 1031.65,-22.109C1031.65,-22.109 1021.82,-17.954 1013.2,-9.332C1011.38,-7.516 1010.21,-5.834 1009.55,-4.386Z" style="fill:rgb(253,158,135);fill-rule:nonzero;"/>
                            <path d="M1122,-73.385L1195.38,0L1198.21,0L1122,-76.213L1122,-73.385Z" style="fill:rgb(253,158,135);fill-rule:nonzero;"/>
                        </g>
                    </g>
                </g>
            </g>
        </g>
    </g>
</svg>
