<?xml version="1.0" encoding="UTF-8" standalone="no"?>
<!DOCTYPE svg PUBLIC "-//W3C//DTD SVG 1.1//EN" "http://www.w3.org/Graphics/SVG/1.1/DTD/svg11.dtd">
<svg width="100%" height="100%" viewBox="0 0 695 1106" version="1.1" xmlns="http://www.w3.org/2000/svg" xmlns:xlink="http://www.w3.org/1999/xlink" xml:space="preserve" xmlns:serif="http://www.serif.com/" style="fill-rule:evenodd;clip-rule:evenodd;stroke-linejoin:round;stroke-miterlimit:2;">
    <g transform="matrix(1,0,0,1,0,-6711)">
        <g id="Artboard3" transform="matrix(0.333354,0,0,0.528499,1188.07,3418.83)">
            <rect x="-3564" y="6229.28" width="2082" height="2092.72" style="fill:none;"/>
            <g transform="matrix(0.00230954,1.80457,-2.84778,0.0014635,-1608.38,6234.96)">
                <clipPath id="_clip1">
                    <rect x="0" y="0" width="1122" height="663.544"/>
                </clipPath>
                <g clip-path="url(#_clip1)">
                    <path d="M1120.59,112.2L1009.8,1.41L899.014,112.2L1009.8,222.986L1065.19,167.593L1120.59,112.2ZM1009.8,225.814L899.014,336.6L1009.8,447.386L1120.59,336.6L1009.8,225.814ZM1009.8,450.214L899.014,561L1009.8,671.786L1120.59,561L1009.8,450.214ZM1009.8,674.614L899.014,785.4L1009.8,896.186L1120.59,785.4L1009.8,674.614ZM1009.8,899.014L899.014,1009.8L1009.8,1120.59L1120.59,1009.8L1009.8,899.014ZM897.6,1008.39L1008.39,897.6L952.993,842.207L897.6,786.815L786.814,897.6L842.207,952.993L897.6,1008.39ZM896.185,1009.8L840.793,954.407L785.4,899.014L674.614,1009.8L785.4,1120.59L896.185,1009.8ZM673.2,1008.39L783.986,897.6L728.593,842.207L673.2,786.815L617.807,842.207L562.414,897.6L673.2,1008.39ZM671.786,1009.8L561,899.014L450.214,1009.8L561,1120.59L671.786,1009.8ZM448.8,1008.39L559.586,897.6L504.193,842.207L448.8,786.815L393.407,842.207L338.014,897.6L393.407,952.993L448.8,1008.39ZM447.386,1009.8L391.993,954.407L336.6,899.014L225.814,1009.8L336.6,1120.59L447.386,1009.8ZM224.4,1008.39L335.186,897.6L279.793,842.207L224.4,786.815L169.007,842.207L113.614,897.6L169.007,952.993L224.4,1008.39ZM222.986,1009.8L167.593,954.407L112.2,899.014L1.414,1009.8L112.2,1120.59L167.593,1065.19L222.986,1009.8ZM112.2,896.186L167.593,840.793L222.986,785.4L167.593,730.007L112.2,674.614L1.414,785.4L112.2,896.186ZM112.2,671.786L167.593,616.393L222.986,561L167.593,505.607L112.2,450.214L1.414,561L112.2,671.786ZM112.2,447.386L222.986,336.6L167.593,281.207L112.2,225.814L1.414,336.6L112.2,447.386ZM112.2,222.986L222.986,112.2L167.593,56.81L112.2,1.41L1.414,112.2L56.807,167.593L112.2,222.986ZM224.4,113.61L113.614,224.4L169.007,279.793L224.4,335.186L335.186,224.4L279.793,169.007L224.4,113.61ZM225.814,112.2L336.6,222.986L447.386,112.2L336.6,1.41L225.814,112.2ZM448.8,113.61L338.014,224.4L393.407,279.793L448.8,335.186L559.586,224.4L504.193,169.007L448.8,113.61ZM450.214,112.2L561,222.986L671.786,112.2L561,1.41L450.214,112.2ZM673.2,113.61L617.807,169.007L562.414,224.4L673.2,335.186L783.986,224.4L728.593,169.007L673.2,113.61ZM674.614,112.2L785.4,222.986L840.793,167.593L896.185,112.2L785.4,1.41L674.614,112.2ZM897.6,559.586L1008.39,448.8L952.993,393.407L897.6,338.014L842.207,393.407L786.814,448.8L842.207,504.193L897.6,559.586ZM897.6,783.986L1008.39,673.2L897.6,562.414L842.207,617.807L786.814,673.2L842.207,728.593L897.6,783.986ZM674.614,785.4L785.4,896.186L896.185,785.4L840.793,730.007L785.4,674.614L674.614,785.4ZM673.2,783.986L783.986,673.2L673.2,562.414L562.414,673.2L673.2,783.986ZM450.214,785.4L561,896.186L671.786,785.4L561,674.614L450.214,785.4ZM448.8,783.986L559.586,673.2L448.8,562.414L393.407,617.807L338.014,673.2L393.407,728.593L448.8,783.986ZM225.814,785.4L336.6,896.186L391.993,840.793L447.386,785.4L391.993,730.007L336.6,674.614L225.814,785.4ZM224.4,562.414L169.007,617.807L113.614,673.2L169.007,728.593L224.4,783.986L335.186,673.2L224.4,562.414ZM224.4,338.014L113.614,448.8L169.007,504.193L224.4,559.586L335.186,448.8L224.4,338.014ZM447.386,336.6L391.993,281.207L336.6,225.814L225.814,336.6L336.6,447.386L447.386,336.6ZM391.993,505.607L336.6,450.214L225.814,561L336.6,671.786L391.993,616.393L447.386,561L391.993,505.607ZM448.8,338.014L338.014,448.8L393.407,504.193L448.8,559.586L559.586,448.8L448.8,338.014ZM671.786,336.6L561,225.814L450.214,336.6L561,447.386L671.786,336.6ZM561,450.214L450.214,561L561,671.786L671.786,561L561,450.214ZM673.2,338.014L562.414,448.8L673.2,559.586L783.986,448.8L673.2,338.014ZM785.4,450.214L674.614,561L785.4,671.786L840.793,616.393L896.185,561L840.793,505.607L785.4,450.214ZM785.4,447.386L840.793,391.993L896.185,336.6L840.793,281.207L785.4,225.814L674.614,336.6L785.4,447.386ZM897.6,113.61L842.207,169.007L786.814,224.4L842.207,279.793L897.6,335.186L1008.39,224.4L952.993,169.007L897.6,113.61ZM1011.21,0L1122,110.79L1122,113.61L1066.61,169.007L1011.21,224.4L1122,335.186L1122,338.014L1066.61,393.407L1011.21,448.8L1122,559.586L1122,562.414L1011.21,673.2L1122,783.986L1122,786.815L1066.61,842.207L1011.21,897.6L1122,1008.39L1122,1011.21L1011.21,1122L1008.39,1122L897.6,1011.21L842.207,1066.61L786.814,1122L783.986,1122L673.2,1011.21L562.414,1122L559.586,1122L448.8,1011.21L393.407,1066.61L338.014,1122L335.186,1122L224.4,1011.21L169.007,1066.61L113.614,1122L110.786,1122L0,1011.21L0,1008.39L110.786,897.6L55.393,842.207L0,786.815L0,783.986L110.786,673.2L0,562.414L0,559.586L110.786,448.8L0,338.014L0,335.186L110.786,224.4L55.393,169.007L0,113.61L0,110.79L110.786,0L113.614,0L169.007,55.39L224.4,110.79L335.186,0L338.014,0L393.407,55.39L448.8,110.79L559.586,0L562.414,0L673.2,110.79L783.986,0L786.814,0L842.207,55.39L897.6,110.79L1008.39,0L1011.21,0Z" style="fill:rgb(253,158,135);fill-rule:nonzero;"/>
                </g>
            </g>
        </g>
    </g>
</svg>
