<?xml version="1.0" encoding="UTF-8" standalone="no"?>
<!DOCTYPE svg PUBLIC "-//W3C//DTD SVG 1.1//EN" "http://www.w3.org/Graphics/SVG/1.1/DTD/svg11.dtd">
<svg width="100%" height="100%" viewBox="0 0 430 394" version="1.1" xmlns="http://www.w3.org/2000/svg" xmlns:xlink="http://www.w3.org/1999/xlink" xml:space="preserve" xmlns:serif="http://www.serif.com/" style="fill-rule:evenodd;clip-rule:evenodd;stroke-linejoin:round;stroke-miterlimit:2;">
    <g transform="matrix(1,0,0,1,-59.6688,0)">
        <g id="Artboard2" transform="matrix(0.790665,0,0,0.822547,59.6688,680.246)">
            <rect x="0" y="-827" width="543" height="479" style="fill:none;"/>
            <g transform="matrix(0.00776442,9.24544,-9.38945,0.00735355,1317.48,-10961.4)">
                <path d="M1118.34,102.93C1109.71,94.311 1099.89,90.161 1099.89,90.161C1099.89,90.161 1104.05,99.98 1112.67,108.6C1114.48,110.42 1116.17,111.59 1117.61,112.25C1116.18,112.91 1114.52,114.07 1112.73,115.86C1104.11,124.485 1099.96,134.31 1099.96,134.31C1099.96,134.31 1109.78,130.155 1118.4,121.53C1120.18,119.76 1121.34,118.11 1122,116.68L1122,107.72C1121.98,107.75 1121.97,107.78 1121.95,107.81C1121.29,106.38 1120.13,104.72 1118.34,102.93Z" style="fill:rgb(133,133,133);fill-opacity:0.2;fill-rule:nonzero;"/>
            </g>
            <g transform="matrix(0.00776442,9.24544,-9.38945,0.00735355,1317.48,-10961.4)">
                <path d="M1126.39,112.15C1127.82,111.49 1129.48,110.33 1131.27,108.54C1139.89,99.91 1144.04,90.09 1144.04,90.09C1144.04,90.09 1134.22,94.25 1125.6,102.87C1123.82,104.64 1122.66,106.29 1122,107.72L1122,112.2L1122,112.2L1122,112.2L1122,116.68C1122.02,116.65 1122.03,116.62 1122.05,116.59C1122.71,118.02 1123.87,119.68 1125.66,121.47C1134.28,130.09 1144.11,134.245 1144.11,134.245C1144.11,134.245 1139.95,124.42 1131.33,115.8C1129.52,113.98 1127.83,112.81 1126.39,112.15Z" style="fill:rgb(253,158,135);fill-opacity:0.2;fill-rule:nonzero;"/>
            </g>
        </g>
    </g>
</svg>
